<?xml version="1.0" encoding="utf-8"?>
<!-- Generator: Adobe Illustrator 16.0.0, SVG Export Plug-In . SVG Version: 6.00 Build 0)  -->
<!DOCTYPE svg PUBLIC "-//W3C//DTD SVG 1.1//EN" "http://www.w3.org/Graphics/SVG/1.1/DTD/svg11.dtd">
<svg version="1.1" id="Layer_1" xmlns="http://www.w3.org/2000/svg" xmlns:xlink="http://www.w3.org/1999/xlink" x="0px" y="0px"
	 width="51.8px" height="32.9px" viewBox="0 0 51.8 32.9" style="enable-background:new 0 0 51.8 32.9;" xml:space="preserve">
<style type="text/css">
<![CDATA[
	.st0{fill:#BA1F44;}
	.st1{fill:#231F20;}
	.st2{fill:#FFFFFF;}
]]>
</style>
<g>
	<path class="st1" d="M43,11.4c-1-1.2-2.3-1.9-3.8-1.9c-1.2,0-2,0.2-2.6,0.7c-0.6,0.5-0.8,1.1-0.8,1.8c0,0.7,0.3,1.3,0.9,1.7
		c0.6,0.5,1.3,0.8,2.2,1.1c0.9,0.3,1.7,0.6,2.6,0.9c0.9,0.3,1.6,0.8,2.2,1.5c0.6,0.7,0.9,1.5,0.9,2.6c0,1.5-0.5,2.6-1.5,3.4
		c-1,0.8-2.4,1.2-4.2,1.2c-1.3,0-2.4-0.3-3.4-0.8c-1-0.6-1.7-1.2-2.1-2.1c-0.1-0.2-0.1-0.3-0.1-0.4c0-0.2,0.1-0.4,0.2-0.5
		c0.1-0.1,0.3-0.2,0.5-0.2c0.3,0,0.5,0.1,0.7,0.4c0.9,1.5,2.3,2.2,4.2,2.2c1.3,0,2.3-0.3,3-0.8c0.7-0.5,1-1.3,1-2.3
		c0-0.7-0.2-1.2-0.7-1.7c-0.4-0.5-1-0.8-1.6-1c-0.7-0.2-1.4-0.5-2.1-0.8c-0.8-0.3-1.5-0.6-2.1-0.8c-0.7-0.3-1.2-0.7-1.6-1.3
		c-0.4-0.6-0.7-1.3-0.7-2.2c0-1.2,0.4-2.1,1.3-2.9c0.9-0.8,2.1-1.1,3.7-1.1c1.1,0,2.1,0.2,3,0.6c0.9,0.4,1.6,1,2.1,1.8
		c0.1,0.1,0.1,0.3,0.1,0.4c0,0.2-0.1,0.4-0.2,0.5c-0.1,0.1-0.3,0.2-0.5,0.2C43.4,11.7,43.2,11.6,43,11.4z"/>
</g>
<path class="st0" d="M27.5,31.1c0,1-0.8,1.9-1.9,1.9H1.9c-1,0-1.9-0.8-1.9-1.9V1.9C0,0.8,0.8,0,1.9,0h23.8c1,0,1.9,0.8,1.9,1.9V31.1
	z"/>
<g>
	<g>
		<path class="st2" d="M14.4,24.7c-4.9,0-7.4-2.8-7.4-8.3c0-2.7,0.6-4.8,1.9-6.2c1.3-1.4,3.1-2.1,5.4-2.1c1.1,0,2.1,0.2,3.1,0.7
			c0.9,0.4,1.7,1.1,2.2,1.8c0.1,0.2,0.2,0.3,0.2,0.5c0,0.2-0.1,0.4-0.2,0.5c-0.1,0.1-0.3,0.2-0.5,0.2c-0.3,0-0.5-0.1-0.6-0.3
			c-0.4-0.6-1-1.1-1.7-1.4c-0.7-0.4-1.5-0.6-2.4-0.6c-1.8,0-3.3,0.6-4.2,1.7c-1,1.1-1.5,2.8-1.5,5.1c0,2.4,0.5,4.1,1.4,5.2
			c1,1.1,2.4,1.6,4.3,1.6c0.8,0,1.6-0.2,2.3-0.5c0.7-0.3,1.3-0.8,1.8-1.4c0.1-0.2,0.3-0.3,0.6-0.3c0.2,0,0.4,0.1,0.5,0.2
			c0.1,0.1,0.2,0.3,0.2,0.5c0,0.2,0,0.3-0.1,0.4c-0.5,0.8-1.3,1.4-2.2,1.8C16.6,24.4,15.5,24.7,14.4,24.7z"/>
	</g>
</g>
</svg>
