<?xml version="1.0" encoding="utf-8"?>
<!-- Generator: Adobe Illustrator 16.0.0, SVG Export Plug-In . SVG Version: 6.00 Build 0)  -->
<!DOCTYPE svg PUBLIC "-//W3C//DTD SVG 1.1//EN" "http://www.w3.org/Graphics/SVG/1.1/DTD/svg11.dtd">
<svg version="1.1" id="Layer_3" xmlns="http://www.w3.org/2000/svg" xmlns:xlink="http://www.w3.org/1999/xlink" x="0px" y="0px"
	 width="200px" height="200px" viewBox="0 0 200 200" style="enable-background:new 0 0 200 200;" xml:space="preserve">
<style type="text/css">
<![CDATA[
	.st0{fill-rule:evenodd;clip-rule:evenodd;fill:#FFFFFF;}
]]>
</style>
<rect x="-0.3" width="200" height="200"/>
<g>
	<path class="st0" d="M58.3,99.2c0-7.7-0.1-15.4,0-23.1c0-3.3,0.1-6.6,0.7-9.8c1.1-6.8,3.9-12.9,8.2-18.2c5.4-6.8,12.3-11.5,20.6-14
		c5.9-1.8,12-2.3,18.1-1.3c15.4,2.7,26.2,11.3,32.3,25.8c2.1,5,2.9,10.2,2.9,15.6c0,16.7,0.1,33.4,0,50.1
		c-0.2,16.2-7.4,28.5-21.4,36.6c-6.5,3.8-13.7,5.4-21.3,5c-16.1-0.8-27.8-8.5-35.5-22.6c-3.2-6-4.5-12.5-4.5-19.3
		C58.3,115.7,58.3,107.5,58.3,99.2z M130.8,99.3c0-8.7,0-17.3,0-26c0-3.7-0.6-7.4-2-10.8C124.5,52.2,117,45.6,106,43.2
		c-6.4-1.4-12.7-0.9-18.6,1.8c-12.4,5.7-18.8,15.6-19,29.3c-0.2,16.4-0.1,32.7,0,49.1c0,2.5,0.3,5,0.7,7.4c0.7,4.4,2.4,8.4,5.1,11.9
		c7.9,10.4,18.3,14.7,31.2,12.6c5.8-1,10.9-3.6,15.2-7.6c6.8-6.3,10.2-14,10.2-23.2C130.8,116.1,130.8,107.7,130.8,99.3z"/>
	<path class="st0" d="M96.8,118.9c0,3.7,0,7.3,0,11c0.4,0,0.8,0.1,1.2,0.1c3.3,0,6.5,0,9.8,0c2.9,0,5.6,1.7,6.2,4.9
		c0.4,2.5-1.5,6-4.7,6c-6.4,0.1-12.8,0-19.3,0c-2,0-4.3-1.7-4.9-3.6c-0.3-0.9-0.4-1.8-0.4-2.7c0-14.1,0-28.2,0-42.3
		c0-2.9,1.3-4.9,4-6c0.4-0.2,0.9-0.2,1.4-0.2c6.1,0,12.2,0,18.3,0c3.2,0,5.4,2.5,5.3,5.7c-0.1,3.4-3,5.2-5.6,5.3c-3.3,0-6.5,0-9.8,0
		c-0.4,0-0.8,0-1.3,0c0,0.5-0.1,0.8-0.1,1.2c0,2.8,0,5.6,0,8.4c0,0.9,0.2,1.3,1.2,1.3c2.5,0,5.1,0.1,7.6,0.1c2.1,0,4.3,2.5,4.5,4.7
		c0.3,3.7-2.4,6.1-5.8,6.2c-2.1,0-4.1,0-6.2,0C97.6,118.8,97.2,118.9,96.8,118.9z"/>
	<path class="st0" d="M96.9,67.8c2.2-2.1,4.3-4.1,6.3-6.2c1.8-1.8,3.6-3.6,5.5-5.3c2.9-2.7,7.1-1.8,8.7,1.9c0.8,1.9,0.2,4.2-1.5,5.8
		c-3.3,3.2-6.5,6.3-9.8,9.5c-1.8,1.8-3.7,3.6-5.5,5.4c-2.4,2.3-5.6,2.2-7.9-0.3c-2.3-2.5-4.7-5-7-7.5c-1.6-1.7-1.9-4.2-1-6
		c1-2,3-3.1,5.3-2.9c1.3,0.1,2.4,0.8,3.3,1.7C94.5,65.2,95.6,66.4,96.9,67.8z"/>
</g>
</svg>
