<?xml version="1.0" encoding="utf-8"?>
<!-- Generator: Adobe Illustrator 16.0.0, SVG Export Plug-In . SVG Version: 6.00 Build 0)  -->
<!DOCTYPE svg PUBLIC "-//W3C//DTD SVG 1.1//EN" "http://www.w3.org/Graphics/SVG/1.1/DTD/svg11.dtd">
<svg version="1.1" id="Layer_1_copy" xmlns="http://www.w3.org/2000/svg" xmlns:xlink="http://www.w3.org/1999/xlink" x="0px"
	 y="0px" width="200px" height="200px" viewBox="0 0 200 200" style="enable-background:new 0 0 200 200;" xml:space="preserve">
<style type="text/css">
<![CDATA[
	.st0{fill:#E56825;}
	.st1{fill-rule:evenodd;clip-rule:evenodd;fill:#FFFFFF;}
]]>
</style>
<rect class="st0" width="200" height="200"/>
<path class="st1" d="M60.5,111.5c1-2.5,1.7-4.8,2.7-6.9c1.2-2.5,2.6-4.8,3.9-7.2c0.6-1.1,1.3-2.2,1.5-3.4c0.6-3.1,3.3-4.4,5.2-6.4
	c3.8-4.1,8-7.8,12-11.8c0.4-0.4,0.4-2.1-0.1-2.6c-5-4.9-10.2-9.7-15.1-14.6c-3.5-3.5-6.8-7.1-10-10.6c1.7-5.6,6.8-8,9.9-12.1
	c0.8-1.1,4.1,0.2,5.6,1.7c3,3.2,6.1,6.3,9.2,9.5c3.6,3.7,7.3,7.3,11,11c1,1,1.9,2.1,3,3c0.2,0.2,1.1,0,1.4-0.3
	c6.8-6.9,13.6-13.8,20.4-20.7c1.1-1.1,2.5-2,3.5-3.1c1.9-2.1,3.6-2,5.5-0.1c3,3,6.1,5.9,8.9,9c1.4,1.6-0.4,3.1-1.3,3.9
	c-5.4,5.5-11,10.8-16.5,16.2c-2.5,2.4-5.1,4.7-7.3,7.4c-1.5,1.8,0.7,2.8,1.7,3.9c3.6,3.7,7.3,7.3,10.9,11c1.6,1.6,3.3,3.2,4.6,5
	c1.1,1.5,1.7,3.4,2.6,5.1c0.8,1.7,1.8,3.3,2.6,5c1,2.2,2.3,4.4,2.8,6.8c0.2,0.9-1.2,2.8-2.1,3c-1.5,0.4-3.5,0.9-4.9-1
	c-0.7-0.9-2.1-1.2-3.3-1.6c-1.4-0.6-3-0.9-4.3-1.6c-3.3-1.9-7-3.2-9.6-6.3c-2.8-3.3-6.1-6.3-9.2-9.4c-1.2-1.2-2.5-2.3-3.7-3.5
	c-1.1-1.2-2.9-1.3-4-0.2c-5.3,5.4-10.6,10.8-16,16.1c-1,1-2.6,1.3-3.9,2c-1.6,0.8-3.2,1.7-4.8,2.5c-1,0.5-1.9,1.2-2.9,1.4
	c-2.5,0.5-4.6,2.8-7.4,1.8C61.9,112.9,61.1,112,60.5,111.5z M84.7,53.3c-1,1-2.3,2.6-3.8,3.9c-2.7,2.3-2.9,2.5-0.6,5
	c3,3.2,6.2,6.2,9.3,9.4c3.1,3.2,6.3,6.4,9.4,9.5c3.1,3.1,6.2,6.1,9.2,9.2c3.2,3.2,6.3,6.4,9.5,9.5c1.3,1.2,2.6,2.4,4.1,3.3
	c1.3,0.8,3.3,0.8,4.1,1.8c1,1.1,2,1.6,2.8,0.8c1.3-1.1,2.5-2.6,1.6-4.6c-0.4-1-0.9-2-1.4-2.9c-0.7-1.2-1.4-2.5-2.3-3.5
	c-2-2.3-4.2-4.4-6.3-6.6c-3-3.1-6.1-6.1-9.1-9.2c-3.2-3.1-6.4-6.2-9.5-9.3c-2.7-2.7-5.4-5.4-8.1-8C90.9,58.8,87.9,56.2,84.7,53.3z
	 M68.6,103c0.7,0.9,1.4,2.1,2.4,2.8c0.7,0.5,2,0.7,2.4-0.9c0-0.1,0.6-0.1,0.9-0.2c2-1,4.5-1.7,6.1-3.2c5.3-5,10.3-10.2,15.3-15.5
	c0.4-0.5,0.2-2.1-0.3-2.8c-1-1.4-2.4-2.4-3.5-3.7c-1-1.1-3.1-1.2-4.1-0.1c-2,2.2-4,4.5-6.2,6.6c-3.9,3.7-8.2,7.1-10.8,12
	C69.9,99.4,69.4,101,68.6,103z M114,52.8c-0.2,0.6-0.3,0.9-0.5,1.1c-3.1,3.1-6.1,6.1-9.3,9.1c-1.2,1.1-1.3,1.8,0,2.9
	c1.3,1.1,2.4,2.4,3.5,3.7c1.9,2.3,2.1,2.4,3.9,0.6c3-2.9,5.9-5.8,8.7-8.8c0.4-0.5,0.3-2.1-0.2-2.7C118.3,56.7,116.3,54.9,114,52.8z
	 M120.1,47.1c-0.7,0.7-1.5,1.1-1.7,1.6c-0.2,0.8-0.2,2.1,0.3,2.6c1.9,1.9,4,3.6,6.1,5.4c0,0,0.8-0.3,1.1-0.9
	c0.4-0.8,0.8-2.2,0.4-2.7C124.4,51,122.2,49.1,120.1,47.1z M75.4,57.1c1.7-1.9,3.3-4,5.3-5.5c2.4-1.8,0.6-2.5-0.3-3.7
	c-1.4-1.9-1.6,0.2-2,0.6c-1.7,1.4-3.4,2.9-4.8,4.6c-0.4,0.5-0.2,1.9,0.1,2.7C73.8,56.3,74.7,56.6,75.4,57.1z"/>
<g>
	<path class="st1" d="M141.4,160c0-3,0-5.6,0-8.3c0.8,0,1.5,0,2.2,0c1.1,0,1.8,0.7,1.8,1.8c0,6.5,0,13.1,0,19.7
		c0,0.9-0.3,1.4-1.2,1.4c-0.8,0-1.7,0-2.6,0c-0.1-0.7-0.2-1.2-0.3-2c-0.4,0.5-0.5,0.8-0.7,0.9c-1.3,0.9-2.6,1.9-4.3,1.8
		c-2-0.2-3.6-1.2-4.6-2.9c-0.5-0.9-0.6-2-0.9-2.9c-0.1-0.5-0.3-1-0.5-1.5c-0.1-0.2-0.2-0.4-0.2-0.6c0.4-1.7,0.5-3.5,1.2-5.2
		c0.5-1.1,1.1-1.8,1.9-2.6c1.2-1.2,3.4-1.5,5-0.6C139.1,159.3,140.1,159.6,141.4,160z M134.8,166.7
		C134.8,166.7,134.8,166.7,134.8,166.7c0.1,0.7,0.1,1.4,0.1,2c-0.1,1.2,0.5,2,1.4,2.4c1.3,0.5,3.7-0.3,4.2-1.3
		c0.5-1.1,0.9-2.2,0.8-3.5c-0.2-2.7-1.7-4.6-4.5-4.1c-1.1,0.2-1.7,0.9-1.9,1.9C134.8,165,134.8,165.9,134.8,166.7z"/>
	<path class="st1" d="M101.5,174.5c-1.4,0-2.7,0-4.1,0c0-0.5,0-0.9,0-1.3c0-5.9,0-11.8,0-17.7c0-1.7,0.4-2.1,2.2-2.1
		c1.8,0,3.6,0,5.4,0c1.8,0,3.4,0.6,4.9,1.6c1.2,0.9,1.9,2.2,2.1,3.5c0.3,1.8,0.3,3.7-0.8,5.2c-0.9,1.1-1.9,2.1-3.3,2.9
		c-1.7,0.9-3.4,0.6-5.1,0.7c-1,0-1.2,0.5-1.2,1.3C101.6,170.4,101.5,172.4,101.5,174.5z M101.5,163.9c1.2,0,2.4,0.3,3.3-0.1
		c0.9-0.3,2-1.2,2.2-2.1c0.3-1.6,0.7-3.4-1.4-4.6c-1.1-0.7-2.1-0.3-3.1-0.5c-0.7-0.1-1,0.3-1,1C101.5,159.6,101.5,161.6,101.5,163.9
		z"/>
	<path class="st1" d="M54.2,174.5c-1.4,0-2.7,0-4,0c0-7.6,0-15.1,0-22.6c0.2-0.1,0.2-0.2,0.3-0.2c4.5-0.2,3.7-0.1,3.7,3.5
		c0,1.5,0,3.1,0,4.8c1.2-0.5,2.2-0.8,3.1-1.3c1-0.6,1.9-0.7,2.8,0.1c0.5,0.4,1.1,0.5,1.6,0.9c1.6,1.1,2.2,2.7,2.2,4.7
		c0,3.3,0,6.7,0,10.2c-1.4,0-2.6,0-4.1,0c0-3,0-6,0-8.9c0-1,0-1.9-0.8-2.7c-0.6-0.5-2.6-0.7-3.2-0.3c-1.4,1.1-1.8,2.4-1.7,4.1
		C54.4,169.2,54.2,171.8,54.2,174.5z"/>
	<path class="st1" d="M26.7,165.5c0,2,0,3.8,0,5.7c2.7,0,5.3,0,8,0c0,1.1,0,2.2,0,3.3c-4,0-8,0-12.1,0c0-0.6-0.1-1-0.1-1.5
		c0-5.9,0-11.8,0-17.8c0-1.7,0.1-1.8,1.8-1.8c3.4,0,6.8,0,10.4,0c0,1.1,0,2.2,0,3.3c-2.2,0-4.4,0-6.5,0c-1.2,0-1.7,0.3-1.5,1.5
		c0.1,0.9-0.2,1.8,0.1,2.6c0.2,0.6,0.8,1.4,1.3,1.4c1.5,0.1,3-0.3,4.5-0.3c0.4,0,1.2,0.3,1.3,0.6c0.2,0.7,0.3,1.5,0,2.1
		c-0.2,0.5-1,0.9-1.5,0.9C30.4,165.6,28.6,165.5,26.7,165.5z"/>
	<path class="st1" d="M71.4,168c0,1.6,0.9,2.5,1.9,3.4c1.3,1,2.5,0.6,3.8,0.6c0.8,0,1.5-0.5,2.3-0.7c0.5-0.1,1,0,1.4,0
		c0.6,2.3,0.1,3.1-2.2,3.3c-1.5,0.2-2.9,0.8-4.4,0.7c-2.4-0.2-4.6-1.3-6-3.3c-1.2-1.7-1-3.9-1-5.9c0-2.9,1.1-5.5,3.6-6.7
		c1.6-0.8,3.6-1.8,6-0.7c1.6,0.7,2.8,1.5,3.9,2.8c0.1,0.1,0.3,0.2,0.4,0.3c0.3,1.3,0.7,2.6,0.8,4c0.1,1.6-0.6,2.2-2.2,2.2
		C76.9,168,74.2,168,71.4,168z M77.2,165.1c0.1-0.2,0.7-1,0.5-1.4c-1.2-2.3-2.7-3.2-5.1-1.4c-1.6,1.1-1.5,1.9-0.3,2.8
		C73.9,165.1,75.3,165.1,77.2,165.1z"/>
	<path class="st1" d="M114.5,163.1c0-1.1,0-2.1,0-3.1c2.2-0.8,4.3-2,6.7-1.7c2,0.2,4,0.7,5.2,2.5c0.1,0.2,0.2,0.4,0.2,0.6
		c0,4.3,0,8.6,0,13.1c-1.2-0.3-2.5,0.7-3.4-0.8c-0.1-0.1-0.7-0.1-1,0c-0.6,0.2-1.1,0.5-1.6,0.9c-1.3,0.9-2.5,0.8-3.9,0
		c-0.8-0.5-1.6-0.8-2.3-1.5c-1-1-0.8-2.1-0.8-3.2c0-2.4,2-4.5,4.4-4.5c1.4,0,2.9,0,4.4,0c0.1-1.4,0.7-2.7-0.8-3.6
		c-0.3-0.2-0.7-0.4-1-0.4c-1.8-0.2-3.4,0.3-4.8,1.4C115.7,163.2,115.1,163.1,114.5,163.1z M122.6,171.1c0-1.1,0-2.1,0-3.1
		c-0.4,0-0.6,0-0.9,0c-0.8,0-1.5,0-2.3,0c-1,0.1-1.7,0.9-1.7,2.1c0,1.2,0.7,1.9,1.7,1.9C120.5,171.9,121.5,171.5,122.6,171.1z"/>
	<path class="st1" d="M38.8,162.4c-2.4-0.3-2.6-0.6-2.3-3.3c0.7-0.1,1.4-0.2,2.3-0.3c0-0.5,0-1.1,0-1.8c0-0.6,0-1.3,0-2
		c1.4,0,2.6,0,4.1,0c0,0.5,0,1,0,1.5c0,2.4-0.3,2.4,2.3,2.4c0.5,0,1.1,0,1.7,0.1c0,0.7,0,1.3,0,1.8c0,0.4-0.1,0.8-0.1,1.3
		c-1.3,0-2.5,0-3.9,0c0,2.7-0.1,5.2,0.1,7.7c0,0.7,0.7,1.4,1.7,1.4c0.7,0,1.4,0,2.1,0c0,1,0,2,0,2.9c-0.8,0.4-1.4,0.9-2.2,1
		c-1.9,0.4-3.6-0.4-4.8-1.7c-0.7-0.7-0.9-2.1-1-3.1C38.7,167.7,38.8,165.1,38.8,162.4z"/>
	<path class="st1" d="M172.7,145.2c0.5,0,1.1,0,1.7,0c0.9-1.9,2-3.5,4.1-4.1c0.1,0,0.2-0.3,0.4-0.3c0.5-0.1,1.2-0.4,1.4-0.3
		c0.5,0.5,1.1,1.3,0.9,1.7c-0.5,1.1-1.2,2.1-2,3c-0.8,0.8-1.8,1.5-2.8,2.1c-0.8,0.5-1,1.2-0.4,1.6c0.4,0.3,1.5,0.2,2-0.1
		c1.6-0.9,3.1-2,4.3-3.5c0.1-0.1,0.3,0,1-0.1c-0.5,0.9-0.8,1.8-1.3,2.3c-1.2,1.2-2.5,2.4-4.3,2.7c-0.6,0.1-1.3,0.7-1.8,0.6
		c-0.7-0.1-1.4-0.6-1.9-1.2c-0.4-0.5-1.3-1.2-0.2-2.1c0.2-0.2,0-0.9-0.3-1.4c-0.9,1.2-1.9,2.5-2.9,3.6c-0.4,0.5-1,0.9-1.6,1.1
		c-1.1,0.5-1.9-0.4-2.2-1.1c-0.3-0.9-0.1-2,0-3c0-0.3,0.3-0.6,0.5-0.9c0.5-1.2,1-2.3,1.4-3.5c0.1-0.4,0-0.9-0.1-1.3
		c-0.1-0.5-0.4-0.9-0.6-1.4c2.2-0.5,4.7-2.8,5.3-5c0.4,0,0.8-0.1,1.3-0.2c0.6,1.5-0.8,2-1.6,3.2c0.9,0,1.7,0,2.4,0
		c0.3,0,0.6,0.2,0.9,0.3c-0.2,0.2-0.4,0.5-0.6,0.7c-0.6,0.3-1.3,0.6-1.9,0.7c-1.4,0.2-2.7,1.3-3.2,2.6c-0.3,0.9-1,1.6-1.4,2.4
		c-0.4,1.1-0.8,2.2-0.9,3.3c-0.1,0.5,0.6,1,1,1.8C170.6,148,171.6,146.7,172.7,145.2z M179.8,143c-1.6-0.4-3,0.7-4.2,3
		C177.7,146,178.2,144,179.8,143z"/>
	<path class="st1" d="M85.2,159c1.1,0,2.1,0,3.1,0c0.1,0.5,0.1,1,0.2,1.8c0.6-0.5,1-0.9,1.5-1.2c0.9-0.5,1.8-1.2,2.8-1.3
		c1-0.2,2.3,1.8,1.9,2.8c-0.2,0.6-0.6,1.2-0.9,1.7c-1.5-1-2.9-0.4-3.8,1c-0.8,1.3-0.7,2.5-0.8,3.8c0,2.2,0,4.5,0,6.9
		c-1.4,0-2.7,0-4,0C85.2,169.3,85.2,164.3,85.2,159z"/>
	<path class="st1" d="M160.1,149.2c-1.4,1-3,0.6-4.6,0.9c-0.9,0.2-1.8,0.8-2.7,1.1c-0.5,0.2-1.3,0.5-1.6,0.2
		c-0.6-0.5-1.3-1.2-0.8-2.2c0.5-0.9,1-1.8,1.5-2.7c0.8-1.3,1.5-2.7,2.3-4c0.6-1.1,1.2-2.3,1.8-3.4c0.8-1.3,1.8-2.5,2.7-3.8
		c1-1.4,2.1-2.8,3.1-4.3c0.7-1,1.5-0.6,2.4-0.3c-4.3,5.9-8.9,11.5-11.5,18.2c0.1,0.1,0.2,0.3,0.4,0.4c0.5-0.2,0.9-0.5,1.4-0.7
		c0.3-0.1,0.7-0.1,1-0.2c0.8-0.2,1.7-0.4,2.5-0.7C158.8,147.5,159.7,148.1,160.1,149.2L160.1,149.2z"/>
	<path class="st1" d="M160,149.3c0.3-0.1,0.7-0.1,0.8-0.2c0.4-1,0.5-2,0.9-2.9c0.8-1.9,1.9-3.6,3.4-5c0.1-0.1,0.3,0,1-0.1
		c-0.6,1.2-0.9,2.4-1.5,3.2c-1.1,1.3-1.4,2.8-2,4.3c-0.3,0.7-0.6,1.4-1,2.3c-0.3,0-0.8,0-1.3,0C160.2,150.3,160.1,149.7,160,149.3
		C160.1,149.2,160,149.3,160,149.3z"/>
	<path class="st1" d="M169,134.6c0.4,2.5-0.2,3.4-2.2,3.1C166.5,136.4,167.4,135.1,169,134.6z"/>
</g>
</svg>
