<?xml version="1.0" encoding="utf-8"?>
<!-- Generator: Adobe Illustrator 16.0.0, SVG Export Plug-In . SVG Version: 6.00 Build 0)  -->
<!DOCTYPE svg PUBLIC "-//W3C//DTD SVG 1.1//EN" "http://www.w3.org/Graphics/SVG/1.1/DTD/svg11.dtd">
<svg version="1.1" id="Layer_1" xmlns="http://www.w3.org/2000/svg" xmlns:xlink="http://www.w3.org/1999/xlink" x="0px" y="0px"
	 width="200px" height="200px" viewBox="0 0 200 200" style="enable-background:new 0 0 200 200;" xml:space="preserve">
<style type="text/css">
<![CDATA[
	.st0{fill:#802528;}
	.st1{fill:#FFFFFF;}
]]>
</style>
<rect class="st0" width="200" height="200"/>
<g>
	<g>
		<path class="st1" d="M141.5,97.6c0.5,0,1,0,1.5,0c0.3-0.6,0.5-1.1,0.8-1.7c-0.7,0-1.5,0-2.3,0c-2.2,0-4.5-0.1-6.7-0.4
			c0,0.6-0.1,1.1-0.1,1.7C137,97.5,139.2,97.6,141.5,97.6z"/>
		<path class="st1" d="M88.5,63.2c-0.5,0.2-1.1,0.3-1.6,0.5c0.4,0.7,0.7,1.5,1.1,2.2c0.5-0.3,1-0.6,1.5-0.8
			C89.1,64.4,88.8,63.8,88.5,63.2z"/>
		<path class="st1" d="M96.6,75.3c-0.3,0.5-0.6,1-0.9,1.5c9,10.2,21.3,17.5,35.3,19.9c0-0.6,0.1-1.1,0.1-1.7
			C117.4,92.6,105.3,85.4,96.6,75.3z"/>
		<path class="st1" d="M94.4,72.6c-1.3-1.7-2.5-3.5-3.7-5.4c-0.5,0.3-1,0.5-1.5,0.8c1.3,2.1,2.7,4.1,4.2,6.1
			C93.7,73.6,94.1,73.1,94.4,72.6z"/>
		<path class="st1" d="M82.2,36.7c0-1.6,0.1-3.2,0.2-4.7c-0.6,0.2-1.2,0.5-1.7,0.7c-0.1,1.3-0.1,2.7-0.1,4c0,8.3,1.7,16.3,4.7,23.5
			c0.5-0.1,1.1-0.3,1.6-0.4C83.9,52.6,82.2,44.8,82.2,36.7z"/>
		<path class="st1" d="M116.6,48.6c-0.8-1-1.5-2-2.3-2.9c-8,6.3-17.3,11.2-27.3,14.1c-0.5,0.2-1.1,0.3-1.6,0.4
			c-6.5,1.7-13.3,2.6-20.4,2.6c-3.7,0-7.4-0.3-11-0.8c-0.4,1.2-0.7,2.4-1,3.6c3.9,0.6,7.9,0.9,12,0.9c7.6,0,15-1,21.9-2.9
			c0.5-0.1,1.1-0.3,1.6-0.5C98.8,60.1,108.3,55.1,116.6,48.6z"/>
		<path class="st1" d="M127.8,37.9c-1-0.7-2.1-1.4-3.2-2.1c-2.3,2.7-4.9,5.2-7.5,7.5c0.8,1,1.6,1.9,2.3,2.9
			C122.4,43.6,125.2,40.8,127.8,37.9z"/>
		<path class="st1" d="M83.3,110.3c0,4.1,0.4,8.1,1,11.9c1.2,0.4,2.4,0.8,3.6,1.1c-0.8-4.2-1.3-8.6-1.3-13c0-1.2,0-2.4,0.1-3.6
			c-1.1-0.4-2.2-0.8-3.3-1.2C83.3,107.1,83.3,108.7,83.3,110.3z"/>
		<path class="st1" d="M136.4,45.8c-0.8-1-1.6-1.9-2.5-2.8c-4.5,1.3-8.9,3.1-12.9,5.2c0.6,0.9,1.3,1.8,1.9,2.8
			C127.1,48.8,131.7,47.1,136.4,45.8z"/>
		<path class="st1" d="M117.7,50.1c-4.7,2.8-9,6.1-12.9,9.8c1.8-0.3,3.6-0.4,5.5-0.5c2.9-2.5,6-4.7,9.3-6.6
			C118.9,51.9,118.3,51,117.7,50.1z"/>
		<path class="st1" d="M96.6,75.3c3-4.8,6.6-9.2,10.7-13.2c-1.9,0.2-3.7,0.5-5.5,0.9c-2.7,3-5.2,6.1-7.4,9.5c-0.3,0.5-0.6,1-0.9,1.5
			c-5.3,8.7-8.7,18.6-9.8,29.2c1.1,0.4,2.2,0.8,3.2,1.2c0.9-10,4-19.5,8.8-27.7C96,76.3,96.3,75.8,96.6,75.3z"/>
		<path class="st1" d="M131.2,92.3c0,0.9,0,1.8-0.1,2.7c0,0.6,0,1.1-0.1,1.7c-0.2,3.8-0.8,7.6-1.6,11.3c1.3-0.2,2.7-0.5,4-0.8
			c0.6-3.2,1.1-6.5,1.3-9.9c0-0.6,0.1-1.1,0.1-1.7c0-1.1,0.1-2.2,0.1-3.2c0-9.2-1.6-17.9-4.6-26.1c-1.6-0.7-3.2-1.4-4.8-2
			C129.2,72.9,131.2,82.4,131.2,92.3z"/>
		<path class="st1" d="M117.7,50.1c0.6,0.9,1.3,1.8,1.9,2.8c1.7,2.7,3.3,5.5,4.6,8.4c1.7,0.5,3.3,1,4.9,1.7
			c-1.7-4.2-3.8-8.1-6.2-11.9c-0.6-0.9-1.2-1.9-1.9-2.8c-0.5-0.7-1-1.4-1.5-2.1c-0.8-1-1.5-2-2.3-2.9c-4.6-5.6-10-10.5-16-14.5
			c-2.2-0.1-4.4,0-6.7,0.3c7.6,4.3,14.3,10,19.8,16.6c0.8,1,1.6,1.9,2.3,2.9C116.9,49.1,117.3,49.6,117.7,50.1z"/>
		<path class="st1" d="M89.2,68c0.5-0.3,1-0.6,1.5-0.8c3.4-1.8,7.1-3.2,11-4.1c1.8-0.4,3.7-0.7,5.5-0.9c1.4-0.1,2.8-0.2,4.2-0.2
			c4.9,0,9.7,0.8,14.1,2.3c1.6,0.6,3.2,1.2,4.8,2c6.9,3.3,12.9,8.4,17.2,14.6c0.1-1.3,0.2-2.6,0.2-4c-4.9-6.1-11.3-11-18.7-14
			c-1.6-0.6-3.2-1.2-4.9-1.7c-4.1-1.2-8.3-1.8-12.7-1.8c-0.4,0-0.8,0-1.2,0c-1.9,0-3.7,0.2-5.5,0.5c-5.5,0.8-10.6,2.5-15.3,5.1
			c-0.5,0.3-1,0.5-1.5,0.8C77.6,72,69.7,82.1,66.5,94c0.7,0.5,1.5,1,2.2,1.5C71.6,83.8,79.1,73.9,89.2,68z"/>
		<path class="st1" d="M68.1,113c-0.4-2.3-0.6-4.7-0.6-7.1c0-2.8,0.3-5.5,0.8-8.2c-0.8-0.5-1.5-1-2.3-1.5c-0.7,3.1-1,6.4-1,9.7
			c0,1.5,0.1,2.9,0.2,4.3C66.1,111.2,67.1,112.1,68.1,113z"/>
		<path class="st1" d="M83.5,105.5c1.1,0.4,2.2,0.8,3.3,1.2c8.8,3,18.1,4.7,27.9,4.7c4.9,0,9.7-0.4,14.3-1.2
			c1.4-0.2,2.7-0.5,4.1-0.8c0.8-0.2,1.7-0.4,2.5-0.6c0.8-0.9,1.6-1.8,2.3-2.8c-1.4,0.4-2.9,0.8-4.3,1.1c-1.3,0.3-2.7,0.6-4,0.8
			c-4.8,0.9-9.8,1.3-14.8,1.3c-9.7,0-19.1-1.7-27.8-4.7c-1.1-0.4-2.2-0.8-3.2-1.2c-5.2-2.1-10.2-4.7-14.9-7.8
			c-0.7-0.5-1.5-1-2.2-1.5c-5.4-3.8-10.4-8.3-14.7-13.2c0.1,1.2,0.2,2.4,0.4,3.6c4.2,4.4,8.8,8.4,13.8,11.8c0.7,0.5,1.5,1,2.3,1.5
			C73,100.8,78.1,103.4,83.5,105.5z"/>
	</g>
	<g>
		<g>
			<circle class="st1" cx="67.4" cy="95.2" r="7.7"/>
		</g>
		<g>
			<circle class="st1" cx="133.4" cy="96" r="6.9"/>
		</g>
		<g>
			<circle class="st1" cx="86.6" cy="61.4" r="4.7"/>
		</g>
		<g>
			<circle class="st1" cx="89.4" cy="66.3" r="3.1"/>
		</g>
		<g>
			<circle class="st1" cx="104.7" cy="61.9" r="6.3"/>
		</g>
		<g>
			<circle class="st1" cx="116.7" cy="45.8" r="4.4"/>
		</g>
		<g>
			<circle class="st1" cx="120.2" cy="50.5" r="4.5"/>
		</g>
		<g>
			<circle class="st1" cx="127.2" cy="63.3" r="4.4"/>
		</g>
		<g>
			<circle class="st1" cx="130.8" cy="108.3" r="4.1"/>
		</g>
		<g>
			<circle class="st1" cx="95.1" cy="74.7" r="4.1"/>
		</g>
		<g>
			<circle class="st1" cx="84.9" cy="104.8" r="4.3"/>
		</g>
	</g>
</g>
<g>
	<path class="st1" d="M21.4,151.7c0-1.7,1.4-3.1,3.1-3.1h7.7c1.7,0,3.1,1.4,3.1,3.1v5h-4.9v-3.3h-4.1V169h4.1v-3.3h4.9v5.1
		c0,1.7-1.4,3.1-3.1,3.1h-7.7c-1.7,0-3.1-1.4-3.1-3.1V151.7z"/>
	<path class="st1" d="M53.8,163c0,1.8-1.1,3.2-2.6,3.8l2.8,7h-5.2l-2.7-6.7h-1.3v6.7h-4.8v-25.2h4.8h4.9c2.3,0,4.1,1.9,4.1,4.1V163z
		 M44.8,162.3h4.1v-8.8h-4.1V162.3z"/>
	<path class="st1" d="M72.4,169.7c0,2.3-1.9,4.1-4.1,4.1h-5.6c-2.3,0-4.1-1.8-4.1-4.1v-16.9c0-2.3,1.8-4.1,4.1-4.1h5.6
		c2.3,0,4.1,1.9,4.1,4.1V169.7z M67.5,153.5h-4.1V169h4.1V153.5z"/>
	<path class="st1" d="M94.8,173.8h-5.7l-1.3-10.6c-0.3-1.8-0.3-3.4-0.5-5.3c-0.1,0-0.2,3.1-0.5,5.3l-1.3,10.6h-5.7l-3.4-25.2h5
		l1.1,12.6l0.4,5.2l0.5-5.2l1.5-12.6h4.8l1.5,12.6l0.4,5.2l0.5-5.2l1.1-12.6h5L94.8,173.8z"/>
	<path class="st1" d="M116,169.7c0,2.3-1.9,4.1-4.1,4.1h-9.7v-25.2h9.7c2.3,0,4.1,1.9,4.1,4.1V169.7z M111.2,153.5H107V169h4.1
		V153.5z"/>
	<path class="st1" d="M120.8,148.6h7.1l2.2,11.9l0.3,4.4h0.1h0.1l0.3-4.4l2.2-11.9h7.1v25.2h-4.8v-13.5l0.2-3.7h-0.1l-2.9,17.3h-2
		h-2l-2.9-17.3h-0.1l0.2,3.7v13.5h-4.8V148.6z"/>
	<path class="st1" d="M144.8,151.7c0-1.7,1.4-3.1,3.1-3.1h7.7c1.7,0,3.1,1.4,3.1,3.1v22.1h-4.9V167h-4.1v6.8h-4.8V151.7z
		 M153.8,162.2v-8.8h-4.1v8.8H153.8z"/>
	<path class="st1" d="M177.3,163c0,2.3-1.9,4.1-4.1,4.1h-4.9v6.7h-4.8v-25.2h4.8h4.9c2.3,0,4.1,1.9,4.1,4.1V163z M168.3,162.3h4.1
		v-8.8h-4.1V162.3z"/>
</g>
</svg>
