<?xml version="1.0" encoding="utf-8"?>
<!-- Generator: Adobe Illustrator 16.0.0, SVG Export Plug-In . SVG Version: 6.00 Build 0)  -->
<!DOCTYPE svg PUBLIC "-//W3C//DTD SVG 1.1//EN" "http://www.w3.org/Graphics/SVG/1.1/DTD/svg11.dtd">
<svg version="1.1" id="Layer_1" xmlns="http://www.w3.org/2000/svg" xmlns:xlink="http://www.w3.org/1999/xlink" x="0px" y="0px"
	 width="500px" height="500px" viewBox="0 0 500 500" enable-background="new 0 0 500 500" xml:space="preserve">
<path fill="#00BFFF" d="M235,39.6c-26.8,2.4-56.9,13.5-79,29.2c-5.2,3.7-14.4,11.6-20.5,17.7c-24.2,24.2-38.4,51.2-45.1,86
	c-2.5,12.5-2.5,42.5,0,55c6.7,34.8,20.9,61.8,45.1,86c6.1,6,15.3,14,20.5,17.7c18.1,12.899,42.3,23,65.5,27.399
	c6.6,1.301,14.1,1.7,28,1.7c16.7,0,20.5-0.3,31.9-2.7c30-6.199,56.3-20,78.1-40.8c27.3-26,43.1-55.899,49-92.8
	c1.9-12.3,1.9-35.7,0-48c-5.9-36.9-21.7-66.8-49-92.8c-28.8-27.5-65-42.5-105.1-43.6C246.2,39.4,237.5,39.4,235,39.6z M262.8,74
	c11.3,1.3,24.8,4.7,35.2,9c44.1,18.2,75.1,61.6,77.7,108.6l0.6,11l-2.8,2.2c-5.4,4.2-6.6,3.5-24.2-14.1C335,176.4,333,174,333,171.2
	c0-4.1,3-7.2,7.1-7.2c2.601,0,4.7,1.5,11.5,8.1l8.301,8.1l-1.4-5.8c-3.2-13.7-7.8-24.2-16-36.4c-7-10.5-20.2-24-30.4-30.9
	c-9.199-6.3-23.6-12.8-34.8-15.8c-8.8-2.4-11.6-2.7-27.8-2.7c-15.4,0-19.2,0.3-26.4,2.2c-20.9,5.5-37.3,14.7-52.2,29.2
	c-13.5,13.2-21.7,26-27.8,43.5c-1.8,4.9-3.9,9.8-4.8,10.7c-2.5,2.8-7.7,2.3-10.2-0.8c-2.6-3.4-2.6-3.6,0.5-13
	c15.6-46.9,58.1-81.3,106.7-86.4C246.1,72.9,252.1,72.9,262.8,74z M148.9,209.4c14.5,14.5,16.4,16.8,16.4,19.6
	c0,2.2-0.7,3.9-2.2,5.2c-4.4,3.5-6.9,2.4-15.8-6.4c-4.6-4.6-8.3-7.6-8.3-6.8c0,3,3.9,15.7,7.3,23.7c10.7,25.399,34,48.3,59.9,58.8
	c16.4,6.7,23.2,7.9,43.3,7.9c16.4-0.101,18.9-0.301,28-2.801c37.4-10.199,66.2-37.399,78.9-74.6c1.399-4.1,3.3-8.1,4.3-8.8
	c4.3-3.1,11.3,0.1,11.3,5.4c0,3.8-4.5,16.5-9.1,25.7C349.3,283.6,325.8,305.5,298,317c-61.1,25.2-131.2-0.4-161.4-58.9
	c-8.1-15.7-11.9-28.7-13.6-47c-1.1-11.6-0.5-15.1,2.7-17C130.3,191.5,131.9,192.6,148.9,209.4z"/>
<path fill="#02181E" d="M27,420.1v24.2l14.3-0.5c12-0.399,14.8-0.8,18.3-2.6c4.2-2.101,7.4-7,7.4-11.101c0-3.6-2.7-8.8-5.5-10.699
	l-2.6-1.7l2.1-2.2c4.2-4.5,4.4-11.8,0.4-15.8c-3.2-3.2-6.1-3.7-21.5-3.7H27V420.1z M52.4,405.3c2.3,1.601,2.4,6.3,0.3,8.4
	c-1,1-4.1,1.7-8.6,2.1l-7.1,0.5v-6.2V404h6.8C47.9,404,51.3,404.5,52.4,405.3z M54.1,423.8c2.8,2.4,3.1,7.9,0.4,9.8
	c-1.2,0.9-4.7,1.4-9.7,1.4H37v-6.5V422h7.4C50.1,422,52.3,422.4,54.1,423.8z"/>
<path fill="#02181E" d="M108,400.5v4.5h6.5h6.5l0.2,19.2l0.3,19.3h5h5l0.3-19.3L132,405h6.5h6.5v-4.5V396h-18.5H108V400.5z"/>
<path fill="#02181E" d="M358.9,398.3c-6.5,4.4-8,12.4-3.101,17.7c2.2,2.5,4.2,3.3,11.601,4.9c10,2.1,11.6,3.399,11.6,9.399
	c0,3-0.7,4.601-3,6.9c-3,3-3.2,3-11.3,2.6c-4.5-0.3-9-0.899-9.9-1.3c-1.399-0.5-1.8-0.2-1.8,1.3c0,1.601,1,2.4,3.8,3.101
	c5.2,1.5,14.7,1.399,18.601-0.301c6.8-2.8,10.1-11.1,7.199-17.899c-1.8-4.4-5-6.101-14.399-7.7c-4-0.6-7.9-1.9-8.7-2.7
	c-3.6-3.5-2.5-11.1,1.9-13.5C364,399.4,374.6,399.4,378.3,400.9c2.4,0.899,2.7,0.8,2.7-0.9c0-2.8-3.7-4-11.9-4
	C363.7,396,361.6,396.5,358.9,398.3z"/>
<path fill="#02181E" d="M92,404c0,4.9-0.1,5-3,5c-2.7,0-3,0.3-3,3s0.3,3,3,3h3v11.9c0,15.3,0.6,16.3,10.9,16.899l7.1,0.4V440.1
	c0-3.899-0.2-4.1-2.4-3.5c-1.3,0.301-3.4,0.101-4.5-0.6c-1.9-1-2.1-1.9-2.1-11v-10h3.5c3.2,0,3.5-0.2,3.5-3s-0.3-3-3.5-3H101v-5v-5
	h-4.5H92V404z"/>
<path fill="#02181E" d="M306,404c0,4.9-0.1,5-3,5c-2.7,0-3,0.3-3,3s0.3,3,3,3h3v11.6c0,6.301,0.4,12.4,1,13.4c1.3,2.4,6.2,4,12.1,4
	h4.9v-4c0-3.8-0.1-3.9-2.8-3.4c-5.101,1-6.3-1.399-6-12l0.3-9.1l3.3-0.3c2.8-0.3,3.2-0.7,3.2-3.3c0-2.7-0.3-2.9-3.5-2.9H315v-5v-5
	h-4.5H306V404z"/>
<path fill="#02181E" d="M148.2,409.2c-10,3.399-14.1,18.1-7.7,27.899c3.3,5.101,8.3,7.2,16.1,6.7c7.6-0.5,10.9-2.5,14.2-8.899
	c4.3-8.2,1.5-19.9-5.8-24.2C161.3,408.4,152.7,407.7,148.2,409.2z M159.7,416.5c4.7,3.3,5.4,13.9,1.2,18.4
	c-3,3.199-9.1,2.899-11.8-0.5c-3.2-4.101-3-13.601,0.4-16.9C152.3,414.6,156.5,414.3,159.7,416.5z"/>
<path fill="#02181E" d="M194,408.7c-0.8,0.3-3,1.899-4.7,3.6L186,415.4v-3.2c0-3.101-0.2-3.2-4-3.2h-4v17.6v17.5l4.3-0.3l4.2-0.3
	l0.5-10.7c0.4-9.5,0.8-10.899,2.9-13.2c1.5-1.6,3.5-2.6,5.3-2.6c2.7,0,2.8-0.2,2.8-4.5C198,408,197.4,407.5,194,408.7z"/>
<path fill="#02181E" d="M219,408.7c-0.8,0.3-3,1.899-4.7,3.6L211,415.4v-3.2c0-3.101-0.2-3.2-4-3.2h-4v17.6v17.5l4.3-0.3l4.2-0.3
	l0.5-10.7c0.4-9.5,0.8-10.899,2.9-13.2c1.5-1.6,3.5-2.6,5.3-2.6c2.7,0,2.8-0.2,2.8-4.5C223,408,222.4,407.5,219,408.7z"/>
<path fill="#02181E" d="M236.5,409.1c-4.1,1.101-9.1,6.2-10.6,10.601c-1.6,4.899-0.7,13.8,1.8,17.1c3.7,5.101,8,7.2,14.5,7.2
	c3.3,0,7.2-0.7,8.8-1.5c2.9-1.5,7-6.4,7-8.4s-7.5-1.3-9.5,0.9c-2.8,3.1-10.1,2.4-12.8-1.2c-1.1-1.5-1.7-3.399-1.3-4.3
	c0.5-1.4,2.2-1.6,12.6-1.3l12,0.3V425C259,413.6,247.9,405.7,236.5,409.1z"/>
<path fill="#02181E" d="M278.4,409.4c-1.801,0.8-3.7,2.199-4.301,3.3c-0.899,1.6-1,1.5-1.1-1c0-2.5-0.3-2.7-4.5-2.7H264v17.5V444
	h4.5h4.5v-9.8c0-15.601,2.5-20.4,9.6-18.601c3.601,0.9,4.4,4,4.4,17V444h4.5h4.5v-14.5c0-14.4,0-14.5-2.8-17.6
	C289.9,408.2,283.4,407.1,278.4,409.4z"/>
<path fill="#02181E" d="M73,426.6v17.5l4.3-0.3l4.2-0.3l0.3-17.3L82,409h-4.5H73V426.6z"/>
<path fill="#02181E" d="M430.5,412.6c-2.6,0.9-4.1,1.101-4.3,0.4c-0.2-0.5-1-1-1.8-1c-1.2,0-1.4,2.6-1.2,15.7
	c0.3,14.1,0.5,15.8,2.1,16.1c1.5,0.3,1.7-0.8,1.7-12.6c0-14.7,0.2-15.101,7.4-15.9c3.5-0.399,4.8-0.1,6.5,1.601
	C442.8,418.8,443,420.1,443,431.6c0,11.4,0.2,12.5,1.8,12.2c1.5-0.3,1.7-1.8,2-11.3c0.4-13.4-0.2-17.1-3.1-18.9
	C440.2,411.3,434.9,410.9,430.5,412.6z"/>
<path fill="#02181E" d="M464.5,411.7c-6.1,1.3-8.7,4.5-10,12c-1.1,7,0.4,13.399,4.1,17c2.801,2.899,3.801,3.3,8.601,3.3
	c7.2,0,9.8-0.8,9.8-3.1c0-1.5-0.5-1.801-2.5-1.4c-1.4,0.3-3.6,0.7-4.9,1c-3,0.6-7.5-1-9.199-3.3c-3.4-4.7-2.301-17.2,1.8-20.601
	c1.899-1.5,3.399-1.699,8.6-1.3c4.9,0.5,6.2,0.3,6.2-0.8c0-0.8-0.3-1.6-0.7-1.8C474.9,411.9,466.6,411.2,464.5,411.7z"/>
<path fill="#02181E" d="M390.9,416.7c1,2.7,3.699,9.6,6,15.399L401,442.7l-3.4,8.2c-3.5,8-3.5,8.1-1.3,8.1c1.9,0,3.2-2.6,11-22.8
	c4.8-12.5,8.7-23.101,8.7-23.5c0-0.5-1-0.7-2.1-0.5c-1.7,0.2-2.9,2.399-6.101,11.8c-2.2,6.3-4.3,11.8-4.7,12.2
	c-0.399,0.5-2.6-4.8-5-11.7c-3.899-11.3-4.6-12.5-6.699-12.5H389L390.9,416.7z"/>
</svg>
