<?xml version="1.0" standalone="no"?>
<!DOCTYPE svg PUBLIC "-//W3C//DTD SVG 20010904//EN"
 "http://www.w3.org/TR/2001/REC-SVG-20010904/DTD/svg10.dtd">
<svg version="1.0" xmlns="http://www.w3.org/2000/svg"
 width="512.000000pt" height="512.000000pt" viewBox="0 0 512.000000 512.000000"
 preserveAspectRatio="xMidYMid meet">
<metadata>
Created by potrace 1.12, written by Peter Selinger 2001-2015
</metadata>
<g transform="translate(0.000000,512.000000) scale(0.100000,-0.100000)"
fill="#000000" stroke="none">
<path d="M0 2560 l0 -2560 1095 0 1095 0 0 334 0 333 -77 5 c-133 8 -226 70
-282 188 l-26 55 -3 363 c-3 378 3 470 37 546 29 64 95 132 163 165 l61 31
511 0 511 0 60 -29 c72 -34 137 -101 173 -179 l27 -57 3 -397 c3 -345 1 -405
-13 -454 -41 -143 -164 -234 -315 -234 l-60 0 0 -335 0 -335 1080 0 1080 0 0
2560 0 2560 -2560 0 -2560 0 0 -2560z m2920 2119 c304 -51 558 -152 821 -326
720 -477 1081 -1353 903 -2193 -95 -446 -343 -863 -693 -1164 -108 -93 -205
-166 -221 -166 -6 0 -10 47 -10 130 l0 130 101 98 c379 363 570 806 570 1317
-1 297 -56 548 -176 800 -162 338 -421 611 -746 788 -583 316 -1325 294 -1880
-56 -652 -410 -962 -1204 -773 -1977 37 -152 52 -193 112 -325 97 -210 252
-422 420 -574 l82 -73 0 -129 c0 -97 -3 -129 -12 -128 -53 2 -372 293 -500
454 -266 337 -432 765 -451 1165 -9 173 7 411 37 555 62 307 171 555 364 832
171 245 474 503 757 646 227 113 507 195 750 217 133 12 407 2 545 -21z m-40
-773 c240 -63 412 -152 580 -303 227 -204 372 -455 438 -758 13 -60 17 -127
17 -270 0 -202 -6 -243 -56 -405 -29 -95 -136 -322 -153 -324 -5 -1 -14 17
-21 40 -6 22 -31 79 -55 126 l-42 86 20 63 c35 106 46 187 46 334 0 153 -16
254 -60 372 -143 382 -479 633 -904 675 -366 35 -730 -103 -946 -360 -183
-217 -273 -509 -244 -794 10 -103 13 -117 46 -235 l18 -62 -42 -83 c-23 -46
-45 -98 -48 -115 -4 -18 -12 -37 -19 -43 -28 -23 -139 215 -188 399 -29 111
-31 125 -31 321 -1 200 0 208 31 330 79 303 213 521 444 721 133 116 272 194
452 254 154 52 252 65 447 61 140 -3 181 -7 270 -30z m-134 -963 c76 -39 142
-106 180 -181 27 -53 29 -65 29 -167 0 -100 -3 -115 -28 -167 -36 -73 -103
-140 -180 -181 -59 -30 -67 -32 -172 -32 -106 0 -112 1 -172 34 -83 45 -139
102 -177 181 -28 59 -31 74 -31 165 0 89 3 107 29 162 18 39 48 81 80 111 92
87 162 113 291 109 78 -3 98 -8 151 -34z"/>
</g>
</svg>
