<?xml version="1.0" encoding="utf-8"?>
<!-- Generator: Adobe Illustrator 16.0.0, SVG Export Plug-In . SVG Version: 6.00 Build 0)  -->
<!DOCTYPE svg PUBLIC "-//W3C//DTD SVG 1.1//EN" "http://www.w3.org/Graphics/SVG/1.1/DTD/svg11.dtd">
<svg version="1.1" id="Layer_1" xmlns="http://www.w3.org/2000/svg" xmlns:xlink="http://www.w3.org/1999/xlink" x="0px" y="0px"
	 width="512px" height="512px" viewBox="0 0 512 512" enable-background="new 0 0 512 512" xml:space="preserve">
<g transform="translate(0.000000,512.000000) scale(0.100000,-0.100000)">
	<path fill="#00A9A1" d="M0,2560V0h1095h1095v334.004v332.998l-77.002,5C1980,680,1887.002,742.002,1831.001,860L1805,915
		l-2.998,362.998c-3.003,377.998,2.998,470,36.997,546.006c28.999,63.994,95,131.992,163.003,165l60.996,30.996h511.006H3085
		l60-29.004c72.002-33.994,137.002-100.996,172.998-178.994L3345,1755l2.998-397.002c2.998-345,1.006-405-12.998-453.994
		C3294.004,760.996,3170.996,670,3020,670h-60V335V0h1080h1080v2560v2560H2560H0V2560z M2920,4678.999
		c304.004-51.001,557.998-151.997,820.996-326.001C4460.996,3876,4822.002,3000,4644.004,2160
		c-95-445.996-343.008-862.998-693.008-1164.004C3842.998,902.998,3745.996,830,3730,830c-5.996,0-10,47.002-10,130v130
		l100.996,97.998c379.004,362.998,570,806.006,570,1317.002C4390,2802.001,4335,3052.998,4215,3305
		c-162.002,337.998-420.996,611.001-745.996,787.998c-583.008,316.001-1325.005,294.004-1880.005-55.996
		c-651.997-410-961.997-1204.004-772.998-1977.002c36.997-152.002,51.997-192.998,111.997-325
		c97.002-210,252.002-422.002,420-574.004l82.002-72.998V959.004c0-97.002-2.998-129.004-12.002-128.008
		c-52.998,2.002-371.997,293.008-500,454.004c-265.996,337.002-431.997,765-450.996,1165c-9.004,172.998,6.997,411.001,36.997,555
		c62.002,307.002,171.001,555,363.999,832.002c171.001,245,474.004,502.998,757.002,645.996
		c227.002,113.003,507.002,195,750,217.002C2507.998,4712.001,2782.002,4702.001,2920,4678.999z M2880,3906
		c240-63.003,412.002-152.002,580-303.003c227.002-203.999,372.002-455,437.998-757.998c12.998-60,17.002-127.002,17.002-270
		c0-202.002-5.996-242.998-55.996-405c-29.004-95-136.006-322.002-153.008-324.004c-5-0.996-13.994,17.002-20.996,40
		c-5.996,22.002-30.996,79.004-55,126.006l-42.002,85.996l20,62.998c35,106.006,46.006,187.002,46.006,334.004
		c0,152.998-16.006,253.999-60,372.002C3450.996,3248.999,3115,3500,2690,3542.001c-366.001,35-730-103.003-946.001-360
		C1561.001,2965,1471.001,2672.998,1500,2387.998c10-102.998,12.998-117.002,46.001-235l17.998-62.002l-41.997-82.998
		c-23.003-45.996-45-97.998-48.003-115C1470,1875,1462.002,1855.996,1455,1850c-27.998-22.998-138.999,215-187.998,399.004
		c-29.004,110.996-31.001,125-31.001,320.996c-1.001,200,0,207.998,31.001,330C1346.001,3202.998,1480,3421,1711.001,3621
		C1843.999,3737.001,1982.998,3815,2162.998,3875C2317.002,3927.001,2415,3940,2610,3936C2750,3932.998,2790.996,3928.999,2880,3906
		z M2745.996,2942.998c76.006-38.999,142.002-105.996,180-180.996c27.002-53.003,29.004-65,29.004-167.002
		c0-100-2.998-115-27.998-167.002c-36.006-72.998-102.998-140-180-180.996C2687.998,2217.002,2680,2215,2575,2215
		c-106.001,0-112.002,0.996-172.002,34.004c-82.998,45-138.999,101.992-176.997,180.996c-28.003,59.004-31.001,74.004-31.001,165
		c0,88.999,2.998,107.002,28.999,162.002c18.003,38.999,48.003,80.996,80,110.996C2396.001,2955,2466.001,2981,2595,2977.001
		C2672.998,2973.999,2692.998,2968.999,2745.996,2942.998z"/>
</g>
</svg>
