<?xml version="1.0" encoding="utf-8"?>
<!-- Generator: Adobe Illustrator 16.0.0, SVG Export Plug-In . SVG Version: 6.00 Build 0)  -->
<!DOCTYPE svg PUBLIC "-//W3C//DTD SVG 1.1//EN" "http://www.w3.org/Graphics/SVG/1.1/DTD/svg11.dtd">
<svg version="1.1" id="Layer_3_copy" xmlns="http://www.w3.org/2000/svg" xmlns:xlink="http://www.w3.org/1999/xlink" x="0px"
	 y="0px" width="200px" height="200px" viewBox="0 0 200 200" style="enable-background:new 0 0 200 200;" xml:space="preserve">
<style type="text/css">
<![CDATA[
	.st0{fill:#FFFFFF;}
	.st1{fill:#37528D;}
	.st2{fill-rule:evenodd;clip-rule:evenodd;fill:#FFFFFF;}
]]>
</style>
<rect x="-0.3" class="st1" width="200" height="200"/>
<g>
	<path class="st2" d="M127.5,144.1c1.3,0,2.5,0,3.7,0c1.9,0,1.9,1.8,2.4,2.8c1,1.8,1.4,3.8,3.1,5.1c0.4,0.3,0.4,1,0.7,1.6
		c0.7,1.4,1.3,2.8,2,4.2c0.7,1.5,1.4,3.1,2.1,4.6c1,2,2.2,3.9,3.2,5.9c0.1,0,0.3-0.1,0.4-0.1c0-0.6,0-1.3,0-1.9c0-6.7,0-13.4,0-20.1
		c0-1.7,0.3-2,2-2.1c0.6,0,1.2,0,1.9,0c0,10.4,0,20.6,0,30.9c-1.7,0-3.4,0-5,0c-4.2-8-8.3-15.9-12.7-24.2c0,8.2,0,16.1,0,24
		c-1.4,0.3-2.6,0.5-3.9,0.7C127.5,165.4,127.5,154.8,127.5,144.1z"/>
	<path class="st2" d="M93.7,175.1c-1.2,0-2.3,0-3.6,0c0-4.9,0-9.6,0-14.3c-4.8,0-9.3,0-14.1,0c0,4.6,0,9.4,0,14.3c-1.4,0-2.7,0-4,0
		c0-10.2,0-20.5,0-30.9c0.9,0,1.8-0.1,2.6,0c0.7,0.1,1.4,0.5,1.3,1.6c-0.1,3.2,0,6.4,0,9.6c0,0.6,0.1,1.1,0.1,1.8c4.6,0,9.2,0,14,0
		c0-1.2,0-2.4,0-3.7c0-2.4,0-4.9,0-7.3c0-2,0.1-2.1,2.1-2.1c0.5,0,0.9,0,1.5,0C93.7,154.5,93.7,164.8,93.7,175.1z"/>
	<path class="st2" d="M122.8,175.5c-1.7-0.3-3.1-0.6-4.5-0.9c-0.2,0-0.4-0.3-0.4-0.5c-0.2-1.4-0.1-2.9-0.7-4.1
		c-0.7-1.5-0.3-3.3-1.6-4.5c-0.2-0.2-0.5-0.5-0.7-0.5c-3.3,0-6.7,0-10,0c-0.3,1.7-0.1,3.6-1,4.7c-1.1,1.4,0,3.3-1.5,4.3
		c-0.2,0.1-0.1,0.6-0.2,1c-1.3,0-2.5,0-4,0c0.3-1.2-0.3-2.3,0.7-3.5c0.8-1,0.7-2.6,1.1-3.9c0.3-1.1,0.6-2.2,0.9-3.3
		c0.2-0.6,0.3-1.1,0.5-1.7c0.5-1.4,1-2.7,1.5-4.1c0-0.1,0.1-0.3,0.1-0.4c0.5-2.5,0.7-5.1,1.6-7.4c0.8-1.8,0.5-4.1,2.1-5.6
		c0.5-0.5,1.2-1,1.8-1.1c1.2-0.2,2.4-0.1,3.6,0c0.9,0.1,1.5,0.5,1.9,1.5c0.7,1.6,0.9,3.3,1.5,4.8c0.5,1.1,0.4,2.2,0.8,3.2
		c0.4,0.8,0.7,1.5,0.8,2.3c0.1,0.9,0.2,1.8,0.5,2.7c0.4,1.1,0.9,2.2,1.4,3.3c0.1,0.2,0.2,0.3,0.2,0.5c0.5,2.5,0.9,5,1.5,7.4
		c0.3,1.1,1.1,2,1.4,3.1C122.8,173.5,122.7,174.3,122.8,175.5z M115.1,161.8c-0.4-1.5-0.3-3.3-1.2-4.1c-1.3-1.3-0.5-2.8-1.4-4.2
		c-1.1-1.8-1.1-4.3-1.6-6.8c-0.5,0.4-0.8,0.5-0.9,0.7c-0.3,0.9-0.2,2-0.8,2.6c-1.3,1.3-0.4,3.1-1.5,4.5c-0.8,1.1-0.8,2.8-1.1,4.2
		c-0.2,1-0.4,2.1-0.6,3.2C109.4,161.8,112.1,161.8,115.1,161.8z"/>
	<path class="st2" d="M177.9,175.4c-1.4-0.3-2.8-0.5-4.1-0.8c-0.2,0-0.4-0.4-0.4-0.6c-0.2-1.4-0.3-2.9-0.7-4.2
		c-0.4-1.5-1.1-2.9-1.7-4.3c-0.1-0.2-0.4-0.4-0.6-0.4c-3.3,0-6.7,0-9.9,0c-0.9,3.4-1.8,6.7-2.6,10c-1.4,0-2.6,0-4.1,0
		c0.4-1.2-0.5-2.3,0.7-3.5c0.8-0.8,0.8-2.3,1-3.5c0.2-1.5,0.3-2.9,1.3-4.1c0.1-0.1,0-0.4,0.1-0.5c0.3-1.4,0.3-3.1,1-4.3
		c1-1.7,0.3-3.9,1.4-5.2c1.1-1.3,0-3.2,1.5-4.2c0.3-0.2,0.1-1,0.1-1.5c0.1-2,1.7-4.5,4.2-4.2c0.4,0.1,0.9,0,1.3,0
		c2.7,0,3.5,0.9,3.8,3.5c0.2,1.2,0.9,2.3,1.4,3.4c0,0.1,0.2,0.2,0.2,0.3c0.5,2.4,0.9,4.9,1.5,7.3c0.3,1.2,1,2.2,1.5,3.4
		c0.1,0.2,0.1,0.5,0.1,0.7c0.2,1.4,0.2,2.8,0.7,4.1c0.8,1.8,1.2,3.7,1.7,5.6c0.2,0.8,0.7,1.6,1,2.4
		C178.3,175,178.1,175.2,177.9,175.4z M166.2,146.9c-0.2,0.1-0.6,0.2-0.7,0.4c-0.5,1-1,2-1.3,3c-0.4,1.5-0.7,3-1.1,4.6
		c-0.3,1.2-0.6,2.5-0.9,3.7c0,0,0,0.1-0.1,0.1c-1.3,0.9-0.5,2-0.6,3.1c2.9,0,5.7,0,8.7,0c-0.2-0.9-0.5-1.5-0.6-2.2
		c-0.2-1-0.5-1.8-0.9-2.7c-0.7-1.6-0.7-3.4-1-5.1c0-0.2-0.2-0.4-0.2-0.6C167.1,149.7,166.7,148.4,166.2,146.9z"/>
	<path class="st2" d="M49.7,165.2c-0.9,3.5-1.8,6.7-2.7,9.9c-1.3,0-2.5,0-3.8,0c0-2.1,0-4,1.3-5.7c0.1-0.1,0-0.3,0.1-0.4
		c0.3-1.4,0.3-3,1-4.3c1-1.8,0.4-4,1.5-5.3c1.1-1.3,0-3.1,1.5-4.2c0.4-0.3,0.4-1.4,0.5-2.1c0.4-1.7,0.8-3.3,1-5c0.2-1.9,2-3.9,4-4
		c0.6,0,1.3-0.1,1.9,0c0.8,0.1,1.8,0.2,2.4,0.7c0.6,0.5,0.9,1.4,1.2,2.3c0.3,1,0.1,2.4,0.7,3c1.3,1.3,0.3,3,1.4,4.3
		c0.8,0.8,0.7,2.4,1,3.6c0.4,1.4,0.1,2.9,1.3,4c0.1,0.1,0.1,0.3,0.1,0.4c0.5,2.5,0.9,5,1.5,7.4c0.3,1.1,1.1,2,1.5,3.1
		c0.2,0.6,0.1,1.4,0.2,2.2c-0.5,0-0.9,0.1-1.3,0.1c-3,0.1-2.9,0-3.4-2.9c-0.2-1.2-1-2.3-1.5-3.5c-0.1-0.4-0.2-0.8-0.2-1.2
		c-0.1-1.9-0.6-2.5-2.6-2.5c-2.8,0-5.6,0-8.5,0C49.9,165.1,49.7,165.2,49.7,165.2z M59.7,161.8c-0.1-0.8-0.1-1.5-0.4-2.1
		c-0.4-1.1-1.1-2.1-1.3-3.3c-0.4-1.6-0.5-3.2-0.7-4.8c0-0.1,0-0.3-0.1-0.4c-0.6-1.4-1.2-2.7-1.9-4.2c0,0-0.4,0-0.4,0.1
		c-0.5,1.5-1.1,3-1.5,4.5c-0.4,1.5-0.7,3.1-1,4.7c-0.2,0.8-0.1,1.8-0.6,2.2c-1.2,1-0.5,2.1-0.6,3.2
		C53.9,161.8,56.7,161.8,59.7,161.8z"/>
	<path class="st2" d="M37.4,161.4c0.5,0.7,1.2,1.2,1.6,2c1,1.8,1.6,4,1,5.9c-0.6,1.7-1.9,3.2-3,4.7c-0.3,0.4-0.9,0.4-1.4,0.6
		c-2.3,1.1-4.6,1.6-7.1,1.4c-1-0.1-2,0.1-3-0.1c-1.2-0.2-2.3-0.5-3.4-1c-0.4-0.2-0.6-1.2-0.5-1.7c0.1-0.5,0.4-1.3,1.4-1.2
		c2.4,0.1,4.9,0.1,7.3,0c1.3-0.1,2.6-0.4,4-0.6c0.1,0,0.3-0.1,0.4-0.2c0.5-1.3,1.4-2.6,1.4-3.9c0-1-0.9-2.3-1.7-3
		c-1.9-1.6-3.7-3.4-6.4-3.8c-0.1,0-0.2-0.1-0.2-0.1c-0.4-1.6-2.3-1.4-3.1-2.5c-1.1-1.5-3.4-2.2-3.1-4.7c0-0.4-0.8-0.9-0.7-1.3
		c0.4-2.2,0.7-4.6,2.5-6c1.2-1,3-1.5,4.6-1.6c3.2-0.2,6.4-0.1,9.6,0c0.7,0,1.6,0.4,1.9,1c0.5,1-0.2,1.9-0.9,2.6
		c-0.2,0.2-0.9,0.2-1.1,0c-1.2-1.5-2.9-0.7-4.2-0.5c-0.8,0.1-1.4,0.3-2.2-0.1c-0.4-0.2-1.1,0.4-1.6,0.5c-0.4,0.1-0.8,0.2-1.2,0.2
		c-2.2,0-2.8,0.6-2.8,2.8c0,2.6,1.2,4.1,3.6,5.1c1,0.4,1.8,1.3,2.7,1.8c0.9,0.5,1.8,0.9,2.7,1.3c0.2,0.1,0.3,0.3,0.4,0.4
		c0.9,0.8,1.8,1.5,2.8,2.3C37.4,161.5,37.4,161.4,37.4,161.4z"/>
</g>
<g>
	<path class="st0" d="M111.1,36c0.6,0.4,0.7,0.5,0.4,1C111.8,36.5,111.6,36.4,111.1,36c0.1-0.3,1.1-0.5,0.5-0.9
		C112.2,35.5,111.2,35.7,111.1,36z"/>
	<path class="st0" d="M140.6,79.4c1.8-0.9,3.5-1.8,5.3-2.7c0-0.2,0.1-0.5,0.1-0.5c0.8-0.6,1.4-1.1,2-1.5c-5-2.2-9.9-4.3-14.8-6.4
		c0-0.5,0-0.9,0.1-1.1c0.7-0.4,1.1-0.8,1.7-1c1.6-0.7,2.7-1.9,3.8-3.2c0.3-0.4,0.2-1.2,0.6-1.3c1.3-0.6,1.9-1.8,2.5-2.9
		c0.8-1.4,1.8-2.7,2.6-4.1c0.7-1.2,1.2-2.4,1.8-3.7c0.2-0.3,0.1-0.7,0.2-1.3c-1,0.5-1.7,0.9-2.5,1.3c-0.4,0.2-0.8,0.6-1.2,0.7
		c-1.5,0.2-3.1,0.4-4.6,0.5c-1.1,0.1-2.2,0.1-3.3,0c-2.5-0.3-4.7,0.8-7.1,0.8c-0.1,0-0.3,0-0.3,0.1c-0.8,1.1-1.8,0.4-2.9,0.6
		c0.3-0.6,0.4-1.2,0.7-1.4c1.4-1,1.6-2.6,1.9-4c0.5-2.1,0.5-4.5,0.7-6.7c0-0.2,0-0.4,0.1-0.5c1.2-0.7,0.5-1.3-0.1-1.8
		c1-0.8,1-4.5,0.3-5.1c0.2-0.9,0.3-1.7,0.5-2.7c-0.6,0.1-1.2,0.3-1.2,0.3c0.2,1.3-1.1,1.5-1.6,2.2c-0.6,0.9-1.4,1.6-2.3,2.3
		c-0.9,0.7-1.8,1.3-3,1.7c-1.2,0.4-2.2,1.2-3.2,1.9c-1,0.8-2,1.7-3,2.4c-0.4,0.3-1.1,0.4-1.7,0.7c0.2-0.6,0.4-0.9,0.5-1.2
		c-1-0.3-0.5-1.1-0.6-1.7c-0.1-0.7,0-1.5,0-2.2c-0.6-0.1-1.1-0.2-1.6-0.3c0.2-0.3,0.4-0.5,0.5-0.6c0.3-0.5,0.2-0.6-0.4-1
		c0.1-0.3,1.1-0.5,0.5-0.9c-0.1-0.1-0.2-0.1-0.4-0.2c-0.1,0-0.1-0.3-0.2-0.5c-0.2-1.2-0.4-2.3-0.7-3.5c-0.4-0.1-0.8-0.1-1-0.1
		c0.1-0.6,0.3-1.2,0.4-1.8c-0.2-0.1-0.4-0.1-0.6-0.2c-0.4,1.1-0.8,2.1-1.4,3.4c0.2,0,0.6,0.1,1.1,0.2c-0.1,0.2-0.3,0.3-0.4,0.5
		c-0.4,0.1-0.9,0.1-1,0.1c-0.5,0.8-1,1.3-1.4,2c-0.8-1.9-1.4-3.6-2.3-5.2c-0.9-1.6-1.9-3.1-3-4.9c-0.1,0-0.5,0-0.8,0
		c-0.4,1.3-0.7,2.5-1,3.7c-0.2,0.5-0.3,1.1-0.6,1.5c-0.8,1.5-1.7,3-2.5,4.6c-0.3,0.7-0.6,1.4-0.9,2c-0.6,1.1-1.2,2.2-1.8,3.3
		c-0.4,0.8-0.7,1.8-1,2.6c-0.2,0.5-0.4,1-0.7,1.8c-0.3-0.8-0.3-1.4-0.6-1.7c-1.4-1.5-2.9-3-4.4-4.4c-0.7-0.7-1.3-1.6-2.2-2.1
		c-0.6-0.4-1.3-0.5-1.8-1.1c-0.8-0.9-1.9-1.5-3-2.2c-0.9-0.6-2-1-2.9-1.6c-0.5-0.3-0.8-0.7-1.2-1.1c-0.1,0.1-0.2,0.1-0.3,0.2
		c0.2,1.2,0.4,2.5,0.6,3.7c0.2,1.2-0.5,2.6,0.6,3.7c-0.7,0.4-0.7,0.9-0.4,1.6c0.2,0.3,0.4,0.7,0.4,1.1c0.1,1.3,0,2.6,0,3.9
		c0,0.8,0,1.6,0,2.4c-0.8-0.4-1.3-0.7-1.9-0.9c-1.3-0.6-2.6-1.2-3.9-1.7c-0.9-0.4-2-0.4-2.6-0.9c-1.3-1.1-2.8,0-4-1
		c0.1,0.5,0.3,0.7,0.3,1c0.3,0.9,0.3,2.1,0.8,2.6c1.4,1.2,0.7,3,1.8,4.2c0.5,0.6,0.3,1.9,0.9,2.5c1.2,1.2,0.1,2.8,1.2,4
		c-0.8,0-1.3-0.2-1.9-0.2c-0.9,0-1.7,0.3-2.6,0.2c-0.8,0-1.6-0.4-2.4-0.3c-1.8,0.1-3.6-0.4-5.3-0.8c-0.1,0-0.2,0-0.2-0.1
		c-1.3-0.9-2.7-1.8-4-2.6c-0.1,0.1-0.2,0.2-0.3,0.3c2.8,7.9,7.5,14.4,15,18.8c-1.1,0.5-2.1,0.9-3,1.4c-1.4,0.7-2.8,1.6-4.2,2.3
		c-1.2,0.6-2.5,0.9-3.7,1.3c-0.4,0.1-0.6,0.6-1,0.6c-1.3,0.2-2.7,0.5-4,0.6c-1.3,0.1-2.7,0-4,0c-0.1,1.4,0.2,1.8,1.3,2.2
		c0.4,0.2,0.8,0.5,1.2,0.8c1,0.7,1.8,1.6,2.8,2.2c1.2,0.7,2.5,1.2,3.8,1.8c0.7,0.3,1.4,0.7,2.1,1c1,0.3,2,0.5,2.9,0.9
		c0.3,0.1,0.6,0.5,1,0.9c-0.6,0.1-1,0.2-1.4,0.3c0,0.5-0.1,0.9-0.1,1.1c-1.2,0.6-2.4,0.9-3.2,1.7c-1.4,1.3-3.1,1.4-4.7,1.9
		c0,0-0.1,0.1-0.2,0.3c0.7-0.1,0.7,2.1,1.7,0.5c0.5,0.3,1,0.8,1.5,1c1.2,0.3,2.5,0.5,3.8,0.8c0.1,0,0.3,0.1,0.3,0.1
		c0.5,1.3,0.8,0.1,1.2-0.1c0.4,1.7,0.8,0.2,1.2-0.1c0.7,0.7,1.6,1.3,1.1,2.4c-0.4,0.8-1.1,1.5-1.7,2.3c-0.1,0.2-0.3,0.3-0.4,0.5
		c-0.6,1.1-1.2,2.2-2,3.6c1-0.2,1.8-0.4,2.7-0.6c1.3-0.2,2.5,0.1,3.9-0.6c1.4-0.8,3.3-0.6,5-0.9c0.5-0.1,0.9-0.2,1.3-0.3
		c1.3-0.3,2.6-0.6,3.9-0.9c0.6-0.1,1.2-0.3,1.8-0.4c0,1.3,0.1,2.7,0,4.1c-0.1,1.3-0.3,2.6-0.4,4c-0.1,2.9,0,5.7,0,8.6
		c0,1-0.3,2-0.4,3.1c0.2-0.1,0.6-0.2,0.9-0.4c0.9-0.7,1.6-1.7,2.5-2.1c0.7-0.3,1.3-0.7,1.8-1.3c0.2-0.3,0.5-0.7,0.8-0.7
		c1,0,1.3-0.7,1.7-1.3c0.1-0.1,0.3-0.1,0.7-0.3c0,0.7,0,1.1,0,1.5c0,0.6-0.1,1.3,0.1,1.8c0.8,1.4,1,3,1.3,4.5c0.2,1,0.4,2.1,0.7,3.1
		c0.1,0,0.2,0,0.3,0c0.8-1.8,1.5-3.7,2.2-5.3c0.4,0.6,0.7,0.9,0.9,1.3c0.1-0.2,0.3-0.3,0.4-0.5c-0.2,0.3-0.4,0.5-0.6,0.8
		c0.3,0.1,0.7,0.2,1,0.3c2.5-4.1,4.8-8.1,7.3-12.2c0.8,1.1,1.4,2,2.1,3c0.5,0.6,1,1.3,1.5,1.9c0.7,0.8,1.7,1.4,1.9,2.3
		c0.3,1.1,1.2,1.6,1.8,2.4c0.6,0.8,1.8,1.3,2.1,2.2c0.5,1.5,1.9,2.1,2.7,3.3c0.4,0.5,0.9,0.8,1.5,1.5c0-0.8,0.1-1.3,0-1.4
		c-0.8-0.3-0.6-1.1-0.6-1.7c0-0.7,0-1.3-0.1-2c-0.1-0.6-0.3-1.1-0.5-1.8c0.7-0.7,0.7-1.7-0.2-2.5c0.9-0.9,0.9-1.1,0.3-1.7
		c0.2-1.7,0.4-3.1,0.5-4.7c0.6,0.5,1,0.9,1.5,1.3c0.4,0.3,1,0.4,1.3,0.8c0.6,0.8,1.2,1.6,2.3,0.6c0.1,0.5,0.1,0.8,0.2,0.9
		c1,0.7,1.8,1.2,2.5,1.7c0.6,0.5,1.3,0.9,1.9,0.1c0.4-0.5,0.4-1-0.3-1.6c-1.1-0.9-1.2-2.4-1.7-3.7c-0.3-0.9-0.7-1.7-1-2.7
		c0.1-0.1,0.3-0.3,0.6-0.5c-0.1,0-0.3,0-0.4,0c-0.1-0.8-0.2-1.5-0.4-2.3c0.1,0,0.3-0.1,0.4-0.1c0.2,0.2,0.2,0.6,0.5,0.7
		c0.7,0.5,1.5,0.8,2.2,1.3c0.9,0.5,1.7,1,2.6,1.5c0.5,0.2,1.1,0.3,1.5,0.6c1.1,0.6,2,1.6,3.1,1.9c1.4,0.4,2.8,0.7,4.1,1.2
		c1.5,0.6,3.2,0.6,4.8,0.9c0.1,0,0.3,0,0.4,0c0.9,0.8,1.2,0,1.6-0.3c-0.5-0.9-1.1-1.6-1.3-2.4c-0.2-1.1-0.3-2.1-1.2-2.9
		c-0.4-0.4-0.6-1.2-0.8-1.8c-0.5-1.5-0.8-3-1.4-4.5c-0.5-1.2-1.4-2.3-1.4-3.7c0-0.2-0.1-0.4-0.2-0.6c-0.5-1.2-1.5-2.3-0.8-3.8
		c0.7-0.6,1.5,1.5,2.2-0.3c0.4,1.2,0.9,1.3,1.2,0.5c0.4,0.1,1,0.3,1,0.3c0.5-1.3,0.8,0.1,1.1,0.1c0.3-0.3,0.5-0.6,0.8-0.6
		c2.6-0.1,5.3,0.2,7.9-0.8c0.3-0.1,0.7-0.1,1-0.2c0.9-0.3,1.8-0.8,2.8-0.9c0.9-0.1,1.5-0.2,1.8-1.1C148.8,86.3,144,83.4,140.6,79.4z
		 M101.3,96.8c-12.4,0-22.5-10.1-22.5-22.5c0-12.4,10.1-22.5,22.5-22.5c12.4,0,22.5,10.1,22.5,22.5
		C123.8,86.8,113.7,96.8,101.3,96.8z"/>
</g>
</svg>
